<svg xmlns="http://www.w3.org/2000/svg" viewBox="0 0 600 380" role="img" aria-labelledby="title desc">
  <title id="title">Edify site preview</title>
  <desc id="desc">Stylized preview card showing Edify CX timeline and content callouts.</desc>
  <defs>
    <linearGradient id="bg" x1="0%" y1="0%" x2="100%" y2="100%">
      <stop offset="0%" stop-color="#f9fbff" />
      <stop offset="100%" stop-color="#eef3ff" />
    </linearGradient>
  </defs>
  <rect width="600" height="380" rx="22" fill="url(#bg)" />
  <rect x="20" y="20" width="560" height="40" rx="10" fill="#193124" opacity="0.9" />
  <rect x="40" y="32" width="100" height="16" rx="8" fill="#8bd36f" />
  <circle cx="520" cy="40" r="8" fill="#c0d7ff" />
  <circle cx="540" cy="40" r="8" fill="#c0d7ff" />
  <circle cx="560" cy="40" r="8" fill="#c0d7ff" />
  <rect x="40" y="90" width="250" height="90" rx="12" fill="#fff" stroke="#d7def3" />
  <rect x="70" y="110" width="170" height="16" rx="8" fill="#203729" opacity="0.85" />
  <rect x="70" y="136" width="140" height="12" rx="6" fill="#7c8ca3" opacity="0.6" />
  <rect x="320" y="90" width="240" height="200" rx="16" fill="#fff" stroke="#d7def3" />
  <rect x="340" y="110" width="200" height="18" rx="9" fill="#203729" opacity="0.85" />
  <rect x="340" y="140" width="160" height="12" rx="6" fill="#7c8ca3" opacity="0.6" />
  <rect x="340" y="170" width="200" height="8" rx="4" fill="#dfe6f5" />
  <rect x="340" y="190" width="200" height="8" rx="4" fill="#dfe6f5" />
  <rect x="340" y="210" width="130" height="8" rx="4" fill="#dfe6f5" />
  <circle cx="120" cy="260" r="46" fill="#f6f9ff" stroke="#d7def3" />
  <circle cx="120" cy="260" r="10" fill="#193124" />
  <line x1="166" y1="260" x2="320" y2="260" stroke="#193124" stroke-width="6" stroke-linecap="round" />
  <polygon points="320,250 340,260 320,270" fill="#193124" />
  <rect x="60" y="310" width="180" height="18" rx="9" fill="#203729" opacity="0.85" />
  <rect x="60" y="336" width="220" height="10" rx="5" fill="#7c8ca3" opacity="0.6" />
</svg>
